<svg xmlns="http://www.w3.org/2000/svg" viewBox="0 0 455.37 283.96"><defs><filter id="Path_9" width="109.71" height="122.147" x="170.273" y="161.813" filterUnits="userSpaceOnUse"><feOffset dx="1" dy="1"/><feGaussianBlur result="blur" stdDeviation="2"/><feFlood flood-color="#fff"/><feComposite in2="blur" operator="in"/><feComposite in="SourceGraphic"/></filter><filter id="Path_10" width="87.74" height="65.67" x="209.842" y="186.571" filterUnits="userSpaceOnUse"><feOffset dx="1" dy="1"/><feGaussianBlur result="blur-2" stdDeviation="2"/><feFlood flood-color="#fff"/><feComposite in2="blur-2" operator="in"/><feComposite in="SourceGraphic"/></filter><filter id="Path_8" width="29.205" height="29.205" x="272.871" y="182.839" filterUnits="userSpaceOnUse"><feOffset dx="1" dy="1"/><feGaussianBlur result="blur-3" stdDeviation="2"/><feFlood flood-color="#fff"/><feComposite in2="blur-3" operator="in"/><feComposite in="SourceGraphic"/></filter><filter id="Path_11" width="455.37" height="183.463" x="0" y="0" filterUnits="userSpaceOnUse"><feOffset dx="1" dy="1"/><feGaussianBlur result="blur-4" stdDeviation="2"/><feFlood flood-color="#fff"/><feComposite in2="blur-4" operator="in"/><feComposite in="SourceGraphic"/></filter><filter id="Path_12" width="31.225" height="33.768" x="385.913" y="105.081" filterUnits="userSpaceOnUse"><feOffset dx="1" dy="1"/><feGaussianBlur result="blur-5" stdDeviation="2"/><feFlood flood-color="#fff"/><feComposite in2="blur-5" operator="in"/><feComposite in="SourceGraphic"/></filter><clipPath id="clip-path"><path id="Path_14" d="M239.03 226.6l-42.13 24.322a5.085 5.085 0 0 0-2.546 4.406V304a5.084 5.084 0 0 0 2.546 4.4l42.133 24.336a5.1 5.1 0 0 0 5.09 0l42.126-24.336a5.1 5.1 0 0 0 2.54-4.406v-48.666a5.085 5.085 0 0 0-2.55-4.406l-42.12-24.322a5.123 5.123 0 0 0-5.1 0" data-name="Path 14"/></clipPath><linearGradient id="linear-gradient" x1="-.847" x2="-.838" y1="-1.034" y2="-1.034" gradientUnits="objectBoundingBox"><stop offset=".3" stop-color="#3e863d"/><stop offset=".5" stop-color="#55934f"/><stop offset=".8" stop-color="#5aad45"/></linearGradient><clipPath id="clip-path-2"><path id="Path_16" d="M195.4 307.086a5.1 5.1 0 0 0 1.5 1.316l36.14 20.875 6.02 3.46a5.107 5.107 0 0 0 2.934.665 5.2 5.2 0 0 0 1-.183l44.434-81.36a5.039 5.039 0 0 0-1.184-.94l-27.586-15.93-14.582-8.39a5.317 5.317 0 0 0-1.32-.53zm0 0" data-name="Path 16"/></clipPath><linearGradient id="linear-gradient-2" x1="-.742" x2="-.737" y1="-.932" y2="-.932" gradientUnits="objectBoundingBox"><stop offset=".57" stop-color="#3e863d"/><stop offset=".72" stop-color="#619857"/><stop offset="1" stop-color="#76ac64"/></linearGradient><clipPath id="clip-path-3"><path id="Path_18" d="M241.066 225.953a5.14 5.14 0 0 0-2.035.652l-42.01 24.247 45.3 82.51a5.052 5.052 0 0 0 1.81-.624l42.13-24.336a5.1 5.1 0 0 0 2.46-3.476l-46.18-78.89a5.29 5.29 0 0 0-1.03-.1c-.14 0-.28.007-.42.02" data-name="Path 18"/></clipPath><linearGradient id="linear-gradient-3" x1="-2.148" x2="-2.138" y1="-2.103" y2="-2.103" gradientUnits="objectBoundingBox"><stop offset=".16" stop-color="#6bbf47"/><stop offset=".38" stop-color="#79b461"/><stop offset=".47" stop-color="#75ac64"/><stop offset=".7" stop-color="#659e5a"/><stop offset=".9" stop-color="#3e863d"/></linearGradient></defs><g id="node" transform="translate(5.5 5.53)"><g filter="url(#Path_9)" transform="translate(-5.5 -5.53)"><path id="Path_9-2" d="M218.647 270.93a8.409 8.409 0 0 1-4.19-1.12l-13.337-7.9c-1.992-1.114-1.02-1.508-.363-1.735a26.927 26.927 0 0 0 6.03-2.75 1.012 1.012 0 0 1 .993.07l10.246 6.08a1.352 1.352 0 0 0 1.238 0l39.95-23.06a1.26 1.26 0 0 0 .61-1.08v-46.1a1.283 1.283 0 0 0-.618-1.1L219.272 169.2a1.229 1.229 0 0 0-1.23 0l-39.926 23.04a1.273 1.273 0 0 0-.633 1.09v46.1a1.231 1.231 0 0 0 .62 1.07l10.94 6.32c5.94 2.97 9.57-.53 9.57-4.05v-45.5a1.14 1.14 0 0 1 1.16-1.15h5.06a1.144 1.144 0 0 1 1.15 1.15v45.52c0 7.92-4.32 12.47-11.83 12.47-2.31 0-4.13 0-9.21-2.5l-10.48-6.04a8.447 8.447 0 0 1-4.19-7.29v-46.1a8.4 8.4 0 0 1 4.19-7.28l39.99-23.07a8.76 8.76 0 0 1 8.4 0l39.94 23.08a8.428 8.428 0 0 1 4.19 7.28v46.1a8.452 8.452 0 0 1-4.19 7.28l-39.94 23.07a8.4 8.4 0 0 1-4.21 1.12" class="node-cls-1" data-name="Path 9" transform="translate(5.5 5.53)"/></g><g filter="url(#Path_10)" transform="translate(-5.5 -5.53)"><path id="Path_10-2" d="M230.987 239.164c-17.48 0-21.145-8.024-21.145-14.754a1.149 1.149 0 0 1 1.158-1.15h5.16a1.155 1.155 0 0 1 1.14.978c.78 5.258 3.1 7.91 13.67 7.91 8.42 0 12-1.9 12-6.367 0-2.57-1.02-4.48-14.1-5.76-10.94-1.08-17.7-3.49-17.7-12.24 0-8.06 6.8-12.86 18.19-12.86 12.79 0 19.13 4.44 19.93 13.98a1.164 1.164 0 0 1-1.16 1.26h-5.19a1.146 1.146 0 0 1-1.12-.9c-1.25-5.53-4.27-7.3-12.48-7.3-9.19 0-10.26 3.2-10.26 5.6 0 2.91 1.26 3.76 13.66 5.4 12.28 1.63 18.11 3.93 18.11 12.56 0 8.7-7.26 13.69-19.92 13.69m48.66-48.89h1.34a1.164 1.164 0 0 0 1.31-1.22c0-1.18-.81-1.18-1.26-1.18h-1.38zm-1.63-3.78h2.97c1.02 0 3.02 0 3.02 2.28a1.985 1.985 0 0 1-1.63 2.12c1.19.08 1.27.86 1.43 1.96a8.43 8.43 0 0 0 .45 2.28h-1.83c-.05-.4-.33-2.6-.33-2.72-.12-.49-.29-.73-.9-.73h-1.51v3.46h-1.67z" class="node-cls-1" data-name="Path 10" transform="translate(5.5 5.53)"/></g><g filter="url(#Path_8)" transform="translate(-5.5 -5.53)"><path id="Path_8-2" d="M0 8.1a7.994 7.994 0 0 0 8.1 8.1 7.994 7.994 0 0 0 8.1-8.1A7.994 7.994 0 0 0 8.1 0 7.994 7.994 0 0 0 0 8.1zm14.39 0a6.289 6.289 0 1 1-12.575 0 6.289 6.289 0 1 1 12.575 0z" class="node-cls-2" data-name="Path 8" transform="translate(278.37 188.34)"/></g><g filter="url(#Path_11)" transform="translate(-5.5 -5.53)"><path id="Path_11-2" fill="#333" fill-rule="evenodd" stroke="rgba(255,255,255,.37)" d="M94.936 90.55a5.115 5.115 0 0 0-2.558-4.445l-42.356-24.37a4.946 4.946 0 0 0-2.328-.67h-.438a5.032 5.032 0 0 0-2.34.67L2.562 86.105A5.154 5.154 0 0 0 0 90.555L.093 156.2a2.52 2.52 0 0 0 1.27 2.21 2.42 2.42 0 0 0 2.54 0l25.18-14.42a5.164 5.164 0 0 0 2.56-4.44v-30.67a5.1 5.1 0 0 1 2.555-4.43l10.72-6.174a5.086 5.086 0 0 1 2.56-.688 5 5 0 0 1 2.544.687l10.715 6.172a5.1 5.1 0 0 1 2.56 4.43v30.663a5.181 5.181 0 0 0 2.565 4.44l25.164 14.41a2.5 2.5 0 0 0 2.56 0 2.568 2.568 0 0 0 1.268-2.21zM294.8 124.726a1.271 1.271 0 0 1-.64 1.106l-14.548 8.386a1.282 1.282 0 0 1-1.277 0l-14.55-8.386a1.267 1.267 0 0 1-.64-1.106v-16.8a1.287 1.287 0 0 1 .63-1.11l14.54-8.4a1.292 1.292 0 0 1 1.29 0l14.55 8.4a1.275 1.275 0 0 1 .64 1.11zm3.93-124.4a2.558 2.558 0 0 0-3.806 2.237v65a1.788 1.788 0 0 1-2.684 1.55L281.634 63a5.108 5.108 0 0 0-5.112 0l-42.37 24.453a5.1 5.1 0 0 0-2.56 4.42v48.92a5.121 5.121 0 0 0 2.56 4.43l42.37 24.47a5.137 5.137 0 0 0 5.117 0l42.37-24.48a5.128 5.128 0 0 0 2.56-4.43V18.863a5.128 5.128 0 0 0-2.63-4.47zm141.097 107.162a5.116 5.116 0 0 0 2.543-4.422V91.21a5.119 5.119 0 0 0-2.547-4.425l-42.1-24.44a5.113 5.113 0 0 0-5.13 0l-42.36 24.45a5.107 5.107 0 0 0-2.56 4.43v48.9a5.133 5.133 0 0 0 2.58 4.45l42.09 23.99a5.1 5.1 0 0 0 5.02.03l25.46-14.15a2.554 2.554 0 0 0 .02-4.45l-42.62-24.46a2.538 2.538 0 0 1-1.29-2.21v-15.34a2.539 2.539 0 0 1 1.28-2.216l13.26-7.65a2.528 2.528 0 0 1 2.55 0l13.27 7.65a2.55 2.55 0 0 1 1.28 2.21v12.06a2.551 2.551 0 0 0 3.84 2.21zm0 0" data-name="Path 11" transform="translate(5.5 5.53)"/></g><g filter="url(#Path_12)" transform="translate(-5.5 -5.53)"><path id="Path_12-2" d="M394.538 105.2a.97.97 0 0 1 .98 0l8.13 4.69a.982.982 0 0 1 .49.85v9.39a.982.982 0 0 1-.49.85l-8.13 4.69a.97.97 0 0 1-.98 0l-8.125-4.69a.979.979 0 0 1-.5-.85v-9.39a.969.969 0 0 1 .49-.85zm0 0" class="node-cls-2" data-name="Path 12" transform="translate(5.5 5.53)"/></g><g id="Group_9" clip-path="url(#clip-path)" data-name="Group 9" transform="translate(-78.306 -164.016)"><path id="Path_13" fill="url(#linear-gradient)" d="M331.363 246.793L212.648 188.6l-60.87 124.174L270.49 370.97zm0 0" data-name="Path 13"/></g><g id="Group_10" clip-path="url(#clip-path-2)" data-name="Group 10" transform="translate(-78.306 -164.016)"><path id="Path_15" fill="url(#linear-gradient-2)" d="M144.07 264l83.83 113.457 110.86-81.906L254.925 182.1zm0 0" data-name="Path 15"/></g><g id="Group_11" clip-path="url(#clip-path-3)" data-name="Group 11" transform="translate(-78.306 -164.016)"><path id="Path_17" fill="url(#linear-gradient-3)" d="M197.02 225.934v107.43h91.68v-107.43zm0 0" data-name="Path 17"/></g></g></svg>